<svg version="1.1" id="Layer_1" xmlns="http://www.w3.org/2000/svg" xmlns:xlink="http://www.w3.org/1999/xlink" x="0px" y="0px"
	 width="100%" viewBox="0 0 2000 2000" enable-background="new 0 0 2000 2000" xml:space="preserve">
<path fill="#FFFFFF" opacity="1.000000" stroke="none" 
	d="
M1374.000000,2001.000000 
	C916.000000,2001.000000 458.500000,2001.000000 1.000000,2001.000000 
	C1.000000,1334.333374 1.000000,667.666687 1.000000,1.000000 
	C667.666687,1.000000 1334.333374,1.000000 2001.000000,1.000000 
	C2001.000000,667.666687 2001.000000,1334.333374 2001.000000,2001.000000 
	C1792.166626,2001.000000 1583.333374,2001.000000 1374.000000,2001.000000 
M1307.061279,1551.639404 
	C1321.730835,1542.791504 1336.454468,1534.031738 1351.059814,1525.079224 
	C1397.449585,1496.644043 1444.070923,1468.574341 1490.092529,1439.554077 
	C1557.516846,1397.037964 1624.220581,1353.376953 1691.742676,1311.019165 
	C1770.112305,1261.856934 1849.022095,1213.555664 1927.762329,1164.985718 
	C1931.133667,1162.906250 1932.440063,1160.706787 1932.386719,1156.699463 
	C1932.151367,1139.036743 1932.203125,1121.368408 1932.356201,1103.703857 
	C1932.385742,1100.303467 1931.520630,1098.373779 1928.260132,1096.795410 
	C1918.088989,1091.871460 1908.159180,1086.451782 1898.084351,1081.325684 
	C1769.371704,1015.834839 1643.271362,945.600342 1519.302734,871.569885 
	C1441.878052,825.334106 1365.061768,778.078064 1288.045288,731.160583 
	C1258.067017,712.898193 1227.418945,695.626221 1200.227783,673.130981 
	C1184.350708,659.995911 1169.876587,645.639587 1159.435913,627.614258 
	C1146.234985,604.823364 1149.357788,579.360657 1162.999634,563.892029 
	C1174.563110,550.780029 1189.422119,543.843811 1206.534790,542.103271 
	C1226.356812,540.087158 1244.924805,544.627014 1261.922974,555.046265 
	C1320.229004,590.785828 1378.585938,626.443970 1436.749878,662.413574 
	C1600.206543,763.497925 1763.575928,864.723206 1926.988647,965.878479 
	C1928.459595,966.789001 1930.051514,967.503845 1932.303711,968.686279 
	C1932.303711,926.272400 1932.303711,884.713623 1932.303711,842.988708 
	C1931.505981,842.462097 1930.551147,841.795349 1929.561890,841.184021 
	C1728.712036,717.047607 1527.858398,592.917480 1327.009521,468.779602 
	C1297.307495,450.421814 1266.030151,437.100647 1230.489746,434.684326 
	C1215.164917,433.642456 1200.016846,434.074829 1185.122314,436.342377 
	C1166.776245,439.135376 1149.213501,445.280884 1132.520874,453.845520 
	C1072.718262,484.528809 1036.985840,546.035461 1043.970947,614.557007 
	C1045.807495,632.571777 1050.878418,649.660461 1058.478394,665.968811 
	C1073.670410,698.568542 1096.781860,725.026917 1123.522583,748.574158 
	C1148.737305,770.777771 1176.541016,789.325562 1205.241211,806.649536 
	C1311.364868,870.707825 1417.432617,934.858704 1523.516113,998.983582 
	C1525.413696,1000.130676 1527.245239,1001.387512 1529.464600,1002.824219 
	C1528.011475,1003.791260 1527.081787,1004.453979 1526.111084,1005.049683 
	C1431.230469,1063.268433 1336.285156,1121.382080 1241.496094,1179.749512 
	C1207.785278,1200.507202 1173.291626,1220.078613 1142.088745,1244.721436 
	C1110.988281,1269.283203 1083.043579,1296.557739 1063.903076,1331.845215 
	C1052.517578,1352.835327 1045.205811,1375.156982 1043.221069,1398.864258 
	C1042.054688,1412.795410 1043.200073,1426.811890 1045.872559,1440.754761 
	C1052.362549,1474.615356 1068.261353,1503.157104 1093.147949,1526.674072 
	C1122.319092,1554.240112 1157.319580,1569.839966 1197.077515,1573.597900 
	C1212.692993,1575.073608 1228.792969,1574.530029 1244.371094,1572.543945 
	C1266.177002,1569.763916 1286.870361,1562.312012 1307.061279,1551.639404 
M501.348938,574.875244 
	C441.984436,612.762390 382.894531,651.088501 323.189117,688.430603 
	C239.634064,740.689209 155.630356,792.230774 71.758545,843.981812 
	C68.992004,845.688843 67.888748,847.393616 67.918747,850.668152 
	C68.083633,868.666077 68.115669,886.667786 67.903358,904.664734 
	C67.857780,908.528442 68.997192,910.506165 72.520874,912.300293 
	C100.995377,926.798340 129.562561,941.138550 157.683105,956.302734 
	C221.388519,990.656311 285.328064,1024.618164 348.289246,1060.297729 
	C415.766785,1098.536865 482.429108,1138.231323 549.075256,1177.915283 
	C600.422546,1208.489502 651.286621,1239.880127 702.189209,1271.194336 
	C735.201538,1291.502441 769.201294,1310.343018 799.271851,1335.137817 
	C816.201599,1349.097290 832.007141,1364.138672 842.152954,1383.924561 
	C855.949036,1410.828857 850.387390,1442.295654 819.431274,1458.362305 
	C792.469910,1472.355469 765.677734,1469.531372 740.368835,1454.689697 
	C705.767639,1434.398926 671.834534,1412.965576 637.681763,1391.913818 
	C573.768921,1352.517700 509.878967,1313.084229 446.026581,1273.590088 
	C387.553802,1237.423462 329.144226,1201.154541 270.704773,1164.934082 
	C207.312653,1125.643921 143.919861,1086.354858 80.520500,1047.076538 
	C76.633461,1044.668457 72.686378,1042.357178 68.316849,1039.729980 
	C68.159515,1041.297119 68.011009,1042.087280 68.010765,1042.877441 
	C67.998550,1082.709595 68.055321,1122.541992 67.898834,1162.373535 
	C67.885269,1165.827148 69.822327,1166.998657 72.085922,1168.402222 
	C108.306000,1190.860962 144.513107,1213.340576 180.745911,1235.778809 
	C274.016052,1293.539062 367.233887,1351.384033 460.594208,1408.998169 
	C536.528076,1455.858521 612.502625,1502.656128 688.743835,1549.013306 
	C715.184082,1565.089966 744.602112,1572.847290 775.379639,1574.886108 
	C790.333801,1575.876587 805.218933,1574.168457 819.934387,1571.102417 
	C870.504822,1560.565674 910.401306,1534.327759 936.268921,1489.291504 
	C960.799011,1446.583862 963.528931,1401.304565 946.891235,1355.093384 
	C936.807251,1327.084839 919.827454,1303.268677 899.424133,1281.847778 
	C869.071350,1249.981201 833.254761,1225.210327 795.895874,1202.441406 
	C744.863098,1171.338623 693.995422,1139.963989 642.876221,1109.004395 
	C594.179260,1079.511597 545.256470,1050.391724 496.417236,1021.134155 
	C488.054199,1016.124207 479.612335,1011.245911 470.716675,1006.018738 
	C472.642242,1004.714417 473.951965,1003.751282 475.332367,1002.903259 
	C508.382904,982.599548 541.441956,962.309631 574.497559,942.014221 
	C635.359192,904.646423 696.269775,867.358093 757.060852,829.875916 
	C791.196106,808.829102 826.206177,789.112915 857.812622,764.171509 
	C885.546997,742.285645 910.862244,718.131714 929.728149,687.908508 
	C953.432800,649.933594 963.163391,609.035339 953.575562,564.790161 
	C941.393677,508.573822 906.696472,470.680389 854.849976,447.988464 
	C826.446655,435.557037 796.460022,431.672241 765.517334,434.845337 
	C739.483887,437.515015 714.799072,444.866699 692.242615,457.770477 
	C663.065125,474.461914 634.623413,492.447479 605.980957,510.064575 
	C571.241150,531.432007 536.622498,552.996460 501.348938,574.875244 
M1128.868042,1087.796021 
	C1129.684082,1087.959717 1130.506714,1088.095703 1131.315063,1088.291260 
	C1163.165283,1096.001709 1191.180664,1088.463623 1214.438477,1065.704590 
	C1235.293091,1045.297119 1243.158203,1019.899109 1239.082520,990.985413 
	C1233.422729,950.833374 1198.217896,917.747314 1154.315430,917.211975 
	C1132.838501,916.950073 1113.404785,923.650574 1097.123535,938.160156 
	C1071.248779,961.219360 1060.801270,989.879333 1068.686401,1023.741150 
	C1076.177734,1055.911865 1096.903076,1076.872437 1128.868042,1087.796021 
M853.022583,919.332092 
	C839.652222,916.969055 826.158752,916.739563 813.021729,919.886414 
	C766.088684,931.128784 737.717224,979.990845 749.697327,1026.007812 
	C760.512207,1067.548828 802.538452,1098.423340 848.758850,1089.841309 
	C900.344482,1080.263062 930.214050,1032.346191 917.905457,982.871460 
	C909.585938,949.430908 887.208862,928.512573 853.022583,919.332092 
z"/>
<path fill="#41287B" opacity="1.000000" stroke="none" 
	d="
M1306.722778,1551.796143 
	C1286.870361,1562.312012 1266.177002,1569.763916 1244.371094,1572.543945 
	C1228.792969,1574.530029 1212.692993,1575.073608 1197.077515,1573.597900 
	C1157.319580,1569.839966 1122.319092,1554.240112 1093.147949,1526.674072 
	C1068.261353,1503.157104 1052.362549,1474.615356 1045.872559,1440.754761 
	C1043.200073,1426.811890 1042.054688,1412.795410 1043.221069,1398.864258 
	C1045.205811,1375.156982 1052.517578,1352.835327 1063.903076,1331.845215 
	C1083.043579,1296.557739 1110.988281,1269.283203 1142.088745,1244.721436 
	C1173.291626,1220.078613 1207.785278,1200.507202 1241.496094,1179.749512 
	C1336.285156,1121.382080 1431.230469,1063.268433 1526.111084,1005.049683 
	C1527.081787,1004.453979 1528.011475,1003.791260 1529.464600,1002.824219 
	C1527.245239,1001.387512 1525.413696,1000.130676 1523.516113,998.983582 
	C1417.432617,934.858704 1311.364868,870.707825 1205.241211,806.649536 
	C1176.541016,789.325562 1148.737305,770.777771 1123.522583,748.574158 
	C1096.781860,725.026917 1073.670410,698.568542 1058.478394,665.968811 
	C1050.878418,649.660461 1045.807495,632.571777 1043.970947,614.557007 
	C1036.985840,546.035461 1072.718262,484.528809 1132.520874,453.845520 
	C1149.213501,445.280884 1166.776245,439.135376 1185.122314,436.342377 
	C1200.016846,434.074829 1215.164917,433.642456 1230.489746,434.684326 
	C1266.030151,437.100647 1297.307495,450.421814 1327.009521,468.779602 
	C1527.858398,592.917480 1728.712036,717.047607 1929.561890,841.184021 
	C1930.551147,841.795349 1931.505981,842.462097 1932.303711,842.988708 
	C1932.303711,884.713623 1932.303711,926.272400 1932.303711,968.686279 
	C1930.051514,967.503845 1928.459595,966.789001 1926.988647,965.878479 
	C1763.575928,864.723206 1600.206543,763.497925 1436.749878,662.413574 
	C1378.585938,626.443970 1320.229004,590.785828 1261.922974,555.046265 
	C1244.924805,544.627014 1226.356812,540.087158 1206.534790,542.103271 
	C1189.422119,543.843811 1174.563110,550.780029 1162.999634,563.892029 
	C1149.357788,579.360657 1146.234985,604.823364 1159.435913,627.614258 
	C1169.876587,645.639587 1184.350708,659.995911 1200.227783,673.130981 
	C1227.418945,695.626221 1258.067017,712.898193 1288.045288,731.160583 
	C1365.061768,778.078064 1441.878052,825.334106 1519.302734,871.569885 
	C1643.271362,945.600342 1769.371704,1015.834839 1898.084351,1081.325684 
	C1908.159180,1086.451782 1918.088989,1091.871460 1928.260132,1096.795410 
	C1931.520630,1098.373779 1932.385742,1100.303467 1932.356201,1103.703857 
	C1932.203125,1121.368408 1932.151367,1139.036743 1932.386719,1156.699463 
	C1932.440063,1160.706787 1931.133667,1162.906250 1927.762329,1164.985718 
	C1849.022095,1213.555664 1770.112305,1261.856934 1691.742676,1311.019165 
	C1624.220581,1353.376953 1557.516846,1397.037964 1490.092529,1439.554077 
	C1444.070923,1468.574341 1397.449585,1496.644043 1351.059814,1525.079224 
	C1336.454468,1534.031738 1321.730835,1542.791504 1306.722778,1551.796143 
M1639.534790,1219.034180 
	C1683.041870,1191.744507 1726.549072,1164.454712 1770.515869,1136.876587 
	C1768.571289,1135.790405 1767.421875,1135.133179 1766.258789,1134.500977 
	C1724.916382,1112.025757 1683.520630,1089.647583 1642.300659,1066.950073 
	C1637.570557,1064.345581 1634.386963,1064.494019 1629.838989,1067.293335 
	C1512.163330,1139.720825 1394.376465,1211.967285 1276.627441,1284.275635 
	C1248.398438,1301.610596 1219.690552,1318.260498 1194.674805,1340.295776 
	C1179.979980,1353.239746 1166.344971,1367.065430 1157.467529,1384.889038 
	C1145.495117,1408.926270 1150.226807,1434.869629 1170.015381,1451.384766 
	C1181.921143,1461.321411 1196.032959,1465.963745 1211.359497,1466.961060 
	C1231.639038,1468.280762 1249.628052,1461.503906 1266.526367,1450.994995 
	C1390.655029,1373.798950 1514.791382,1296.615234 1639.534790,1219.034180 
z"/>
<path fill="#92E3A9" opacity="1.000000" stroke="none" 
	d="
M501.650177,574.675476 
	C536.622498,552.996460 571.241150,531.432007 605.980957,510.064575 
	C634.623413,492.447479 663.065125,474.461914 692.242615,457.770477 
	C714.799072,444.866699 739.483887,437.515015 765.517334,434.845337 
	C796.460022,431.672241 826.446655,435.557037 854.849976,447.988464 
	C906.696472,470.680389 941.393677,508.573822 953.575562,564.790161 
	C963.163391,609.035339 953.432800,649.933594 929.728149,687.908508 
	C910.862244,718.131714 885.546997,742.285645 857.812622,764.171509 
	C826.206177,789.112915 791.196106,808.829102 757.060852,829.875916 
	C696.269775,867.358093 635.359192,904.646423 574.497559,942.014221 
	C541.441956,962.309631 508.382904,982.599548 475.332367,1002.903259 
	C473.951965,1003.751282 472.642242,1004.714417 470.716675,1006.018738 
	C479.612335,1011.245911 488.054199,1016.124207 496.417236,1021.134155 
	C545.256470,1050.391724 594.179260,1079.511597 642.876221,1109.004395 
	C693.995422,1139.963989 744.863098,1171.338623 795.895874,1202.441406 
	C833.254761,1225.210327 869.071350,1249.981201 899.424133,1281.847778 
	C919.827454,1303.268677 936.807251,1327.084839 946.891235,1355.093384 
	C963.528931,1401.304565 960.799011,1446.583862 936.268921,1489.291504 
	C910.401306,1534.327759 870.504822,1560.565674 819.934387,1571.102417 
	C805.218933,1574.168457 790.333801,1575.876587 775.379639,1574.886108 
	C744.602112,1572.847290 715.184082,1565.089966 688.743835,1549.013306 
	C612.502625,1502.656128 536.528076,1455.858521 460.594208,1408.998169 
	C367.233887,1351.384033 274.016052,1293.539062 180.745911,1235.778809 
	C144.513107,1213.340576 108.306000,1190.860962 72.085922,1168.402222 
	C69.822327,1166.998657 67.885269,1165.827148 67.898834,1162.373535 
	C68.055321,1122.541992 67.998550,1082.709595 68.010765,1042.877441 
	C68.011009,1042.087280 68.159515,1041.297119 68.316849,1039.729980 
	C72.686378,1042.357178 76.633461,1044.668457 80.520500,1047.076538 
	C143.919861,1086.354858 207.312653,1125.643921 270.704773,1164.934082 
	C329.144226,1201.154541 387.553802,1237.423462 446.026581,1273.590088 
	C509.878967,1313.084229 573.768921,1352.517700 637.681763,1391.913818 
	C671.834534,1412.965576 705.767639,1434.398926 740.368835,1454.689697 
	C765.677734,1469.531372 792.469910,1472.355469 819.431274,1458.362305 
	C850.387390,1442.295654 855.949036,1410.828857 842.152954,1383.924561 
	C832.007141,1364.138672 816.201599,1349.097290 799.271851,1335.137817 
	C769.201294,1310.343018 735.201538,1291.502441 702.189209,1271.194336 
	C651.286621,1239.880127 600.422546,1208.489502 549.075256,1177.915283 
	C482.429108,1138.231323 415.766785,1098.536865 348.289246,1060.297729 
	C285.328064,1024.618164 221.388519,990.656311 157.683105,956.302734 
	C129.562561,941.138550 100.995377,926.798340 72.520874,912.300293 
	C68.997192,910.506165 67.857780,908.528442 67.903358,904.664734 
	C68.115669,886.667786 68.083633,868.666077 67.918747,850.668152 
	C67.888748,847.393616 68.992004,845.688843 71.758545,843.981812 
	C155.630356,792.230774 239.634064,740.689209 323.189117,688.430603 
	C382.894531,651.088501 441.984436,612.762390 501.650177,574.675476 
M578.114624,813.608704 
	C608.202393,795.155640 638.369507,776.830444 668.357849,758.217163 
	C705.414673,735.216675 742.663391,712.497803 779.167175,688.644165 
	C800.966492,674.399353 820.596863,657.252808 835.743591,635.628967 
	C845.520325,621.671387 850.766418,606.552002 848.579712,589.164978 
	C845.226562,562.503784 819.489380,544.375000 793.241516,542.057922 
	C772.276978,540.207214 753.123840,545.735291 735.263672,556.758423 
	C680.433533,590.598999 625.280029,623.919617 570.629944,658.047241 
	C460.330322,726.926758 350.279236,796.204346 240.128906,865.322937 
	C236.947845,867.319031 233.803604,869.373779 230.069717,871.768250 
	C231.690292,872.784241 232.610672,873.431702 233.592361,873.966675 
	C275.933868,897.042358 318.308044,920.058472 360.571228,943.276611 
	C363.677185,944.982971 365.612518,944.272644 368.158020,942.706055 
	C437.920349,899.774048 507.711487,856.888977 578.114624,813.608704 
z"/>
<path fill="#92E3A9" opacity="1.000000" stroke="none" 
	d="
M1128.492188,1087.647705 
	C1096.903076,1076.872437 1076.177734,1055.911865 1068.686401,1023.741150 
	C1060.801270,989.879333 1071.248779,961.219360 1097.123535,938.160156 
	C1113.404785,923.650574 1132.838501,916.950073 1154.315430,917.211975 
	C1198.217896,917.747314 1233.422729,950.833374 1239.082520,990.985413 
	C1243.158203,1019.899109 1235.293091,1045.297119 1214.438477,1065.704590 
	C1191.180664,1088.463623 1163.165283,1096.001709 1131.315063,1088.291260 
	C1130.506714,1088.095703 1129.684082,1087.959717 1128.492188,1087.647705 
z"/>
<path fill="#41287B" opacity="1.000000" stroke="none" 
	d="
M853.418335,919.470825 
	C887.208862,928.512573 909.585938,949.430908 917.905457,982.871460 
	C930.214050,1032.346191 900.344482,1080.263062 848.758850,1089.841309 
	C802.538452,1098.423340 760.512207,1067.548828 749.697327,1026.007812 
	C737.717224,979.990845 766.088684,931.128784 813.021729,919.886414 
	C826.158752,916.739563 839.652222,916.969055 853.418335,919.470825 
z"/>
<path fill="#92E3A9" opacity="1.000000" stroke="none" 
	d="
M1639.229980,1219.230957 
	C1514.791382,1296.615234 1390.655029,1373.798950 1266.526367,1450.994995 
	C1249.628052,1461.503906 1231.639038,1468.280762 1211.359497,1466.961060 
	C1196.032959,1465.963745 1181.921143,1461.321411 1170.015381,1451.384766 
	C1150.226807,1434.869629 1145.495117,1408.926270 1157.467529,1384.889038 
	C1166.344971,1367.065430 1179.979980,1353.239746 1194.674805,1340.295776 
	C1219.690552,1318.260498 1248.398438,1301.610596 1276.627441,1284.275635 
	C1394.376465,1211.967285 1512.163330,1139.720825 1629.838989,1067.293335 
	C1634.386963,1064.494019 1637.570557,1064.345581 1642.300659,1066.950073 
	C1683.520630,1089.647583 1724.916382,1112.025757 1766.258789,1134.500977 
	C1767.421875,1135.133179 1768.571289,1135.790405 1770.515869,1136.876587 
	C1726.549072,1164.454712 1683.041870,1191.744507 1639.229980,1219.230957 
z"/>
<path fill="#41287B" opacity="1.000000" stroke="none" 
	d="
M577.806213,813.802368 
	C507.711487,856.888977 437.920349,899.774048 368.158020,942.706055 
	C365.612518,944.272644 363.677185,944.982971 360.571228,943.276611 
	C318.308044,920.058472 275.933868,897.042358 233.592361,873.966675 
	C232.610672,873.431702 231.690292,872.784241 230.069717,871.768250 
	C233.803604,869.373779 236.947845,867.319031 240.128906,865.322937 
	C350.279236,796.204346 460.330322,726.926758 570.629944,658.047241 
	C625.280029,623.919617 680.433533,590.598999 735.263672,556.758423 
	C753.123840,545.735291 772.276978,540.207214 793.241516,542.057922 
	C819.489380,544.375000 845.226562,562.503784 848.579712,589.164978 
	C850.766418,606.552002 845.520325,621.671387 835.743591,635.628967 
	C820.596863,657.252808 800.966492,674.399353 779.167175,688.644165 
	C742.663391,712.497803 705.414673,735.216675 668.357849,758.217163 
	C638.369507,776.830444 608.202393,795.155640 577.806213,813.802368 
z"/>
</svg>